<svg width="17" height="27" viewBox="0 0 17 27" fill="none" xmlns="http://www.w3.org/2000/svg">
<path d="M9.30078 21.4001C10.0008 21.1001 10.4008 20.4001 10.4008 19.2001V7.50005C10.4008 6.50005 10.1008 5.90005 9.50078 5.60005C8.90078 5.30005 8.20078 5.10005 7.50078 5.10005H7.00078H6.60078V21.9001C7.70078 21.8001 8.60078 21.7001 9.30078 21.4001ZM0.300781 0.800049H7.40078C10.8008 0.800049 13.1008 1.20005 14.5008 1.90005C15.9008 2.70005 16.6008 4.20005 16.6008 6.60005V20.1C16.6008 22 16.0008 23.5 14.8008 24.6C13.6008 25.7 11.6008 26.3001 8.80078 26.3001H0.40078V0.800049H0.300781Z" fill="#103977"/>
</svg>
