<svg width="12" height="20" viewBox="0 0 12 20" fill="none" xmlns="http://www.w3.org/2000/svg">
<path d="M2 13.6C2.2 15.1 2.6 16.0999 3.2 16.7999C3.8 17.5 4.6 17.9 5.7 17.9C5.8 17.9 5.9 17.9 6 17.9C6.1 17.9 6.2 17.9 6.3 17.9C7 17.8 7.7 17.4 8.3 16.7999C8.9 16.1999 9.2 15.3 9.2 14.2V13.5C9.1 12.7 8.8 12.2 8.2 11.8C7.6 11.4 6.9 11 6.1 10.7C5.9 10.6 5.8 10.6 5.6 10.5C5.4 10.4 5.2 10.3 5.1 10.3C4 9.89995 3.1 9.29995 2.2 8.49995C1.3 7.79995 0.900002 6.59995 0.900002 4.99995C0.900002 4.89995 0.900002 4.89995 0.900002 4.79995C0.900002 4.69995 0.900002 4.59995 0.900002 4.59995V4.49995C0.900002 4.49995 0.900002 4.49995 0.900002 4.39995C0.900002 4.29995 0.900002 4.29995 0.900002 4.19995C0.900002 4.09995 0.900002 4.09995 0.900002 3.99995C1 2.79995 1.5 1.79995 2.4 1.19995C3.3 0.599952 4.3 0.299951 5.3 0.199951H5.6C5.7 0.199951 5.8 0.199951 5.9 0.199951C7 0.299951 8.1 0.699951 9 1.49995C9.9 2.29995 10.4 3.29995 10.5 4.69995H8.7C8.7 3.79995 8.4 3.09995 7.8 2.49995C7.2 1.89995 6.5 1.49995 5.7 1.39995C5.6 1.39995 5.5 1.39995 5.5 1.39995C5.4 1.39995 5.3 1.39995 5.3 1.39995C4.6 1.39995 4 1.59995 3.5 2.09995C2.9 2.59995 2.6 3.39995 2.5 4.49995V4.59995V4.69995C2.5 4.79995 2.5 4.79995 2.5 4.89995V4.99995C2.5 6.19995 2.9 7.09995 3.7 7.59995C4.5 8.09995 5.4 8.59995 6.4 8.99995C6.5 8.99995 6.5 9.09995 6.6 9.09995C6.7 9.09995 6.7 9.09995 6.8 9.19995C7.8 9.59995 8.8 10.1 9.7 10.8C10.6 11.4 11 12.4 11.1 13.9V14C11.1 15.7 10.6 17.1 9.5 18C8.4 18.9 7.3 19.4 6 19.5H5.8H5.6C4.3 19.5 3.1 18.9999 2.1 18.0999C0.999998 17.1999 0.5 15.8 0.5 13.9V13.8C0.5 13.8 0.5 13.8 0.5 13.7V13.6V13.5L2 13.6Z" fill="#0796D6"/>
</svg>
