<svg width="10" height="20" viewBox="0 0 10 20" fill="none" xmlns="http://www.w3.org/2000/svg">
<path d="M1.7 9.10003H4.5C5.7 9.10003 6.6 8.70002 7.2 8.00002C7.8 7.30002 8.2 6.50003 8.2 5.60003V5.50002V5.40002V5.30002V5.20003C8.1 4.40003 7.8 3.60002 7.2 2.90002C6.6 2.20002 5.70001 1.90002 4.60001 1.90002H1.60001V9.10003H1.7ZM4.3 0.400024C6.3 0.400024 7.70001 0.900024 8.60001 1.90002C9.50001 2.90002 9.89999 4.00003 9.89999 5.10003V5.40002C9.89999 5.50002 9.89999 5.60003 9.89999 5.60003C9.79999 6.90003 9.2 8.00003 8.2 9.10003C7.2 10.1 5.80001 10.7 4.10001 10.7H1.7V19.1H0V0.400024H4.3Z" fill="#0796D6"/>
</svg>
