<svg width="11" height="20" viewBox="0 0 11 20" fill="none" xmlns="http://www.w3.org/2000/svg">
<path d="M2 3.9C1.5 5.5 1.3 7.4 1.3 9.6C1.3 10.1 1.3 10.6 1.3 11.2C1.3 11.8 1.4 12.3 1.4 12.9C1.6 14.2 1.9 15.3 2.4 16.4C2.9 17.5 3.8 18 5 18.1H5.1C5.1 18.1 5.1 18.1 5.2 18.1C6.5 18.1 7.4 17.6 8 16.6C8.5 15.6 8.9 14.5 9 13.2C9.1 12.7 9.10001 12.2 9.10001 11.7C9.10001 11.2 9.10001 10.8 9.10001 10.3V8.9C9.10001 8.5 9.10001 8 9.10001 7.5C9.10001 7 8.99999 6.4 8.89999 5.9C8.69999 4.9 8.4 3.9 7.8 3C7.3 2.1 6.4 1.6 5.2 1.5C3.6 1.6 2.5 2.3 2 3.9ZM9.8 2.8C10.5 4.5 10.9 6.7 10.9 9.6C10.9 10.1 10.9 10.7 10.9 11.4C10.9 12 10.8 12.7 10.8 13.3C10.6 14.8 10.1 16.2 9.39999 17.5C8.59999 18.8 7.3 19.4 5.3 19.4C3.4 19.4 2.1 18.7 1.4 17.4C0.700002 16.1 0.299998 14.6 0.0999985 13C-1.52737e-06 12.4 0 11.7 0 11.1C0 10.5 0 9.9 0 9.4C0 9.3 0 9.2 0 9.1C0 9 0 8.9 0 8.8C0 8.7 0 8.6 0 8.4C0 8.3 0 8.1 0 8C0 7.6 0 7.1 0 6.6C0 6.1 0.0999969 5.6 0.199997 5.1C0.399997 3.9 0.899997 2.7 1.7 1.7C2.5 0.700001 3.8 0.1 5.6 0C7.6 0.3 9 1.2 9.8 2.8Z" fill="#0796D6"/>
</svg>
