<svg width="12" height="20" viewBox="0 0 12 20" fill="none" xmlns="http://www.w3.org/2000/svg">
<path d="M2.3 3.89997C1.8 5.49997 1.6 7.39998 1.6 9.59998C1.6 10.1 1.6 10.6 1.6 11.2C1.6 11.8 1.7 12.3 1.7 12.9C1.9 14.2 2.2 15.3 2.7 16.4C3.2 17.5 4.1 18 5.3 18.1H5.4C5.4 18.1 5.4 18.1 5.5 18.1C6.8 18.1 7.7 17.6 8.3 16.6C8.8 15.6 9.2 14.5 9.3 13.2C9.4 12.7 9.4 12.2 9.4 11.7C9.4 11.2 9.4 10.8 9.4 10.3V8.89997C9.4 8.49998 9.4 7.99998 9.4 7.49998C9.4 6.99998 9.3 6.39997 9.2 5.89997C9 4.89997 8.7 3.89998 8.1 2.99998C7.6 2.09998 6.7 1.59998 5.5 1.49998C3.8 1.59998 2.7 2.29997 2.3 3.89997ZM10 2.79997C10.7 4.49997 11.1 6.69998 11.1 9.59998C11.1 10.1 11.1 10.7 11.1 11.4C11.1 12 11 12.7 11 13.3C10.8 14.8 10.3 16.2 9.6 17.5C8.8 18.8 7.5 19.4 5.5 19.4C3.6 19.4 2.3 18.7 1.6 17.4C0.899998 16.1 0.499999 14.6 0.299999 13C-7.7486e-07 12.4 0 11.8 0 11.2C0 10.6 0 9.99998 0 9.49998C0 9.39997 0 9.29998 0 9.19998C0 9.09998 0 8.99998 0 8.89997C0 8.79997 0 8.69998 0 8.49998C0 8.39997 0 8.19998 0 8.09998C0 7.69998 0 7.19998 0 6.69998C0 6.19998 0.100001 5.69998 0.200001 5.19998C0.400001 3.99998 0.900001 2.79997 1.7 1.79997C2.5 0.799974 3.8 0.199976 5.6 0.0999756C7.8 0.299976 9.3 1.19997 10 2.79997Z" fill="#0796D6"/>
</svg>
